<svg xmlns="http://www.w3.org/2000/svg" version="1.1" xmlns:xlink="http://www.w3.org/1999/xlink" xmlns:svgjs="http://svgjs.dev/svgjs" width="1440" height="560" preserveAspectRatio="none" viewBox="0 0 1440 560"><g mask="url(&quot;#SvgjsMask1178&quot;)" fill="none"><rect width="1440" height="560" x="0" y="0" fill="rgba(255, 243, 120, 1)"></rect><path d="M891.73 287.91a19.97 19.97 0 1 0-22.38-33.08z" stroke="#037b0b"></path><path d="M1357.43 542.33L1402.22 542.33L1402.22 560.95L1357.43 560.95z" stroke="rgba(20, 48, 211, 1)"></path><path d="M910.17 519.47L912.1 519.47L912.1 570.57L910.17 570.57z" fill="rgba(20, 48, 211, 1)"></path><path d="M21.38 115.9 a5.49 5.49 0 1 0 10.98 0 a5.49 5.49 0 1 0 -10.98 0z" fill="#e73635"></path><path d="M789.42 374.69L801.2 374.69L801.2 386.47L789.42 386.47z" fill="#e73635"></path><path d="M1066.1-2.4a49.81 49.81 0 1 0-99.5 4.93z" stroke="#e73635"></path><path d="M447.8 548.17L493.22 548.17L493.22 593.59L447.8 593.59z" stroke="#037b0b"></path><path d="M234.06 365.2 a10.97 10.97 0 1 0 21.94 0 a10.97 10.97 0 1 0 -21.94 0z" stroke="#e73635"></path><path d="M1126.36 370.04 a50.02 50.02 0 1 0 100.04 0 a50.02 50.02 0 1 0 -100.04 0z" stroke="#037b0b"></path><path d="M490.9 266.53a35.99 35.99 0 1 0 10.48 71.21z" fill="rgba(20, 48, 211, 1)"></path><path d="M37.19 226.29L91.13 226.29L91.13 280.23L37.19 280.23z" stroke="#e73635"></path><path d="M545.59 52.37a5.01 5.01 0 1 0 0.59-10.01z" fill="rgba(20, 48, 211, 1)"></path><path d="M1346.23 477.82 a5.5 5.5 0 1 0 11 0 a5.5 5.5 0 1 0 -11 0z" stroke="#037b0b"></path><path d="M975.6 68.19 a40.39 40.39 0 1 0 80.78 0 a40.39 40.39 0 1 0 -80.78 0z" fill="#037b0b"></path><path d="M956.1 472.19L996.59 472.19L996.59 512.68L956.1 512.68z" fill="#e73635"></path><path d="M213.99 542.02 a40.88 40.88 0 1 0 81.76 0 a40.88 40.88 0 1 0 -81.76 0z" fill="#037b0b"></path><path d="M386.97 294.55 a45.94 45.94 0 1 0 91.88 0 a45.94 45.94 0 1 0 -91.88 0z" stroke="#e73635"></path><path d="M363.05 112.05 a18.56 18.56 0 1 0 37.12 0 a18.56 18.56 0 1 0 -37.12 0z" fill="rgba(20, 48, 211, 1)"></path><path d="M978.17 352.33a16.89 16.89 0 1 0-19.4-27.65z" stroke="#e73635"></path><path d="M51.78 419.68a16.38 16.38 0 1 0-32.22 5.96z" stroke="#e73635"></path><path d="M873.38 454.35L925.43 454.35L925.43 506.4L873.38 506.4z" stroke="#e73635"></path><path d="M1391.91 386.02L1436.84 386.02L1436.84 429.39L1391.91 429.39z" stroke="#037b0b"></path><path d="M1383.16 292.7 a48.94 48.94 0 1 0 97.88 0 a48.94 48.94 0 1 0 -97.88 0z" fill="#037b0b"></path><path d="M623.22 368.25L628.52 368.25L628.52 383.43L623.22 383.43z" fill="#e73635"></path><path d="M909.59 64.12a45.77 45.77 0 1 0 83.72 37.02z" fill="rgba(20, 48, 211, 1)"></path><path d="M1182 241.29L1185.62 241.29L1185.62 251.35L1182 251.35z" fill="#037b0b"></path><path d="M330.99 543.2 a10.9 10.9 0 1 0 21.8 0 a10.9 10.9 0 1 0 -21.8 0z" fill="#e73635"></path><path d="M197.64 435.86L203.05 435.86L203.05 441.27L197.64 441.27z" stroke="rgba(20, 48, 211, 1)"></path><path d="M54.45 348.31L70.69 348.31L70.69 364.55L54.45 364.55z" stroke="#e73635"></path><path d="M208.69 540.77L255.28 540.77L255.28 568.85L208.69 568.85z" fill="#e73635"></path><path d="M644.88 464.89 a16.72 16.72 0 1 0 33.44 0 a16.72 16.72 0 1 0 -33.44 0z" stroke="#e73635"></path><path d="M1392.15 385.42L1435.1 385.42L1435.1 428.37L1392.15 428.37z" fill="#e73635"></path><path d="M952.73 270.21L1006.65 270.21L1006.65 324.13L952.73 324.13z" stroke="#037b0b"></path></g><defs><mask id="SvgjsMask1178"><rect width="1440" height="560" fill="#ffffff"></rect></mask></defs></svg>