<svg xmlns="http://www.w3.org/2000/svg" version="1.1" xmlns:xlink="http://www.w3.org/1999/xlink" xmlns:svgjs="http://svgjs.dev/svgjs" width="1440" height="500" preserveAspectRatio="none" viewBox="0 0 1440 500"><g mask="url(&quot;#SvgjsMask1105&quot;)" fill="none"><rect width="1440" height="500" x="0" y="0" fill="rgba(255, 255, 255, 1)"></rect><path d="M22 500L522 0L748.5 0L248.5 500z" fill="url(&quot;#SvgjsLinearGradient1106&quot;)"></path><path d="M326.8 500L826.8 0L1125.3 0L625.3 500z" fill="url(&quot;#SvgjsLinearGradient1106&quot;)"></path><path d="M646.6 500L1146.6 0L1203.6 0L703.6 500z" fill="url(&quot;#SvgjsLinearGradient1106&quot;)"></path><path d="M1409 500L909 0L706.5 0L1206.5 500z" fill="url(&quot;#SvgjsLinearGradient1107&quot;)"></path><path d="M1103.2 500L603.2 0L352.70000000000005 0L852.7 500z" fill="url(&quot;#SvgjsLinearGradient1107&quot;)"></path><path d="M743.4 500L243.39999999999998 0L-209.60000000000002 0L290.4 500z" fill="url(&quot;#SvgjsLinearGradient1107&quot;)"></path><path d="M1113.0524524109414 500L1440 173.05245241094138L1440 500z" fill="url(&quot;#SvgjsLinearGradient1106&quot;)"></path><path d="M0 500L326.9475475890586 500L 0 173.05245241094138z" fill="url(&quot;#SvgjsLinearGradient1107&quot;)"></path></g><defs><mask id="SvgjsMask1105"><rect width="1440" height="500" fill="#ffffff"></rect></mask><linearGradient x1="0%" y1="100%" x2="100%" y2="0%" id="SvgjsLinearGradient1106"><stop stop-color="rgba(254, 193, 64, 1)" offset="0"></stop><stop stop-opacity="0" stop-color="rgba(254, 193, 64, 1)" offset="0.66"></stop></linearGradient><linearGradient x1="100%" y1="100%" x2="0%" y2="0%" id="SvgjsLinearGradient1107"><stop stop-color="rgba(254, 193, 64, 1)" offset="0"></stop><stop stop-opacity="0" stop-color="rgba(254, 193, 64, 1)" offset="0.66"></stop></linearGradient></defs></svg>